<?xml version="1.0" encoding="UTF-8"?>
<svg width="100px" height="24px" viewBox="0 0 100 24" version="1.1" xmlns="http://www.w3.org/2000/svg" xmlns:xlink="http://www.w3.org/1999/xlink">
    <g id="SIG中心" stroke="none" stroke-width="1" fill="none" fill-rule="evenodd">
        <g id="dark" fill-rule="nonzero">
            <g id="ubm横版">
                <path d="M38.5017572,12.047776 C37.6375658,12.0480778 36.7966262,12.3283899 36.1043791,12.846904 L36.1043791,12.1738127 C36.1043791,12.1042074 36.0480827,12.047776 35.9786376,12.047776 L34.4269053,12.047776 C34.3574602,12.047776 34.3011638,12.1042074 34.3011638,12.1738127 L34.3011638,22.5444053 C34.3011638,22.6140106 34.3574602,22.6704368 34.4269053,22.6704368 L35.9786376,22.6704368 C36.0480827,22.6704368 36.1043791,22.6140106 36.1043791,22.5444053 L36.1043791,19.2994402 C37.5044339,20.3476254 39.4199778,20.3682794 40.8422058,19.3505249 C42.2644337,18.3327705 42.8669862,16.5101523 42.3325339,14.842537 C41.7980817,13.1749217 40.2492658,12.044978 38.5017572,12.047776 L38.5017572,12.047776 Z M38.5017572,18.24133 C37.3070522,18.2398002 36.3396464,17.2680969 36.3406625,16.0706354 C36.3416801,14.8731739 37.3107349,13.9031226 38.5054408,13.9036315 C39.7001467,13.9041408 40.6683791,14.8750177 40.6683791,16.0724797 C40.6680127,16.6480618 40.4395385,17.1999237 40.033218,17.6066619 C39.6268976,18.0134002 39.0760146,18.241697 38.5017572,18.24133 L38.5017572,18.24133 Z" id="形状" fill="#FFFFFF"></path>
                <path d="M48.8263736,17.5890126 C48.8139377,17.6042472 48.8001199,17.6208668 48.7849204,17.6361013 C48.3799135,18.0333098 47.8313911,18.2487266 47.2649689,18.2330198 C46.6991909,18.2526633 46.150018,18.039493 45.7450173,17.6430261 C45.5716476,17.4715007 45.4332045,17.2678256 45.3373939,17.0433378 C45.2939673,16.9434616 45.258843,16.8401618 45.2323791,16.7344913 C45.2265163,16.7193451 45.2265163,16.7025489 45.2323791,16.6874026 C45.2408946,16.6734574 45.254994,16.6638678 45.2710688,16.6610883 L51.1380818,16.6610883 C51.1380818,16.6610883 51.252769,16.6610883 51.2638232,16.565526 C51.2638232,16.565526 51.2900769,16.3356224 51.2900769,16.1015639 C51.2870752,15.7372453 51.2406877,15.3745888 51.1518995,15.0212938 C51.06101,14.6956336 50.9291428,14.3828901 50.7594757,14.0905996 C50.405615,13.4717988 49.8901616,12.961381 49.2685414,12.6142305 C48.6463144,12.2562693 47.9409473,12.0690113 47.2235156,12.0713043 C45.0276811,12.1120882 43.2688748,13.9079038 43.2688748,16.1091811 C43.2688748,18.3104584 45.0276811,20.1062741 47.2235156,20.1470368 C47.9429075,20.15403 48.6513313,19.9700647 49.276832,19.6138265 C49.8035771,19.3111083 50.2518429,18.8883774 50.5853721,18.3798257 C50.590603,18.3719951 50.5919244,18.3621791 50.5889512,18.353239 C50.585978,18.3442989 50.5790448,18.3372408 50.5701726,18.334122 C50.390542,18.2468694 50.206766,18.1693116 50.0243718,18.0875988 L49.1414181,17.6914998 L48.9230978,17.5931675 C48.9009894,17.5793179 48.860918,17.5502337 48.8263736,17.5890126 Z M45.7533079,14.5822609 C46.6122933,13.7922105 47.9306517,13.7892073 48.7932111,14.5753361 C48.9273487,14.7026994 49.0394195,14.8515358 49.1248369,15.0157539 C49.1405814,15.0429232 49.1544322,15.0711515 49.1662901,15.1002366 C49.1842531,15.1597899 49.1400364,15.1597899 49.1400364,15.1597899 L45.4092462,15.1597899 C45.4092462,15.1597899 45.355357,15.1597899 45.3816107,15.1057764 C45.4078644,15.0517629 45.4368817,15.0005194 45.4672807,14.9506607 C45.5466377,14.8161914 45.6427529,14.6923961 45.7533079,14.5822609 L45.7533079,14.5822609 Z" id="形状" fill="#FFFFFF"></path>
                <path d="M55.4975792,12.0768368 C54.6088911,12.0761304 53.7563101,12.4292701 53.1273944,13.0585976 C52.4984788,13.6879252 52.144746,14.5418892 52.1440134,15.4326274 L52.1440134,19.9725316 C52.1440134,20.0490209 52.2058775,20.1110278 52.2821908,20.1110278 L53.9499922,20.1110278 C54.0263055,20.1110278 54.0881696,20.0490209 54.0881696,19.9725316 L54.0881696,15.4326274 C54.0881696,14.6493768 54.7216583,14.0144267 55.5031063,14.0144267 C56.2845543,14.0144267 56.918043,14.6493768 56.918043,15.4326274 L56.918043,19.9725316 C56.918043,20.0490209 56.9799072,20.1110278 57.0562205,20.1110278 L58.7240218,20.1110278 C58.8003351,20.1110278 58.8621993,20.0490209 58.8621993,19.9725316 L58.8621993,15.4326274 C58.8614723,14.5399646 58.5062222,13.6843161 57.8749132,13.0546691 C57.2436041,12.4250221 56.3881802,12.073184 55.4975792,12.0768368 L55.4975792,12.0768368 Z" id="路径" fill="#FFFFFF"></path>
                <path d="M64.0175986,20.1775069 C62.9592352,20.1782408 61.9439284,19.7575424 61.1950342,19.0079596 C60.44614,18.2583767 60.025004,17.2413115 60.0242713,16.1805067 L60.0242713,10.0866755 C60.0250299,9.99772434 60.0971892,9.92601997 60.1859389,9.92601997 L62.1715483,9.92601997 C62.260298,9.92601997 62.3324574,9.99772434 62.3332159,10.0866755 L62.3332159,16.1805067 C62.3332159,17.1129115 63.0873397,17.8687749 64.0175986,17.8687749 C64.9478575,17.8687749 65.7019813,17.1129115 65.7019813,16.1805067 L65.7019813,10.0866755 C65.7027398,9.99772434 65.7748992,9.92601997 65.8636489,9.92601997 L67.8492583,9.92601997 C67.938008,9.92601997 68.0101673,9.99772434 68.0109259,10.0866755 L68.0109259,16.1805067 C68.0101932,17.2413115 67.5890572,18.2583767 66.840163,19.0079596 C66.0912688,19.7575424 65.075962,20.1782408 64.0175986,20.1775069 Z" id="路径" fill="#FFFFFF"></path>
                <path d="M29.3143409,12.0740952 C27.6854008,12.0740952 26.2169349,13.0578323 25.5939544,14.5664094 C24.970974,16.0749865 25.3162238,17.8111721 26.4686515,18.9650691 C27.6210792,20.118966 29.3536238,20.4632238 30.8580864,19.8372527 C32.362549,19.2112815 33.3425078,17.7384157 33.3408329,16.1057187 C33.339305,13.8781258 31.5368075,12.0733302 29.3143409,12.0740952 L29.3143409,12.0740952 Z M29.3143409,18.1388429 C28.1959482,18.1388429 27.28917,17.2303832 27.2886619,16.1094107 C27.2881542,14.9884382 28.1941089,14.0791549 29.3125011,14.0781349 C30.4308933,14.0771166 31.3384961,14.9847472 31.3400261,16.1057187 C31.3411233,16.6447943 31.1281462,17.1621488 30.748098,17.5435934 C30.3680498,17.9250379 29.8521768,18.1392115 29.3143409,18.1388429 L29.3143409,18.1388429 Z" id="形状" fill="#FFFFFF"></path>
                <path d="M77.4069901,12.9964799 C77.4069901,13.9479485 76.9344233,14.5060881 76.2435362,14.8246292 C77.5410222,15.1487103 78.135185,15.9118241 78.135185,17.1139708 C78.135185,19.1457095 76.6359601,20.1775059 74.4886831,20.1775059 L71.509578,20.1775059 L69.6331287,20.1775059 C69.51408,20.1775059 69.417572,20.0807752 69.417572,19.9614519 L69.417572,10.1503837 C69.4183259,10.0306099 69.5150123,9.93370047 69.6345105,9.93294477 L73.7604881,9.93294477 C75.9077651,9.93432974 77.4069901,10.9647412 77.4069901,12.9964799 Z M71.509578,12.2167465 L71.509578,13.7762133 C71.509578,13.8955366 71.6060861,13.9922673 71.7251348,13.9922673 C72.7600836,13.9922673 72.9825493,13.9922673 73.7881236,13.9922673 C75.088373,13.9922673 75.3232747,13.4299729 75.3218989,12.9950949 C75.3205111,12.560217 75.088373,11.9951526 73.7604881,11.9951526 L71.7265166,11.9951526 C71.6682554,11.9951526 71.6124386,12.0186201 71.5716334,12.0603009 C71.5308283,12.1019817 71.5084647,12.1583616 71.509578,12.2167465 Z M71.5095603,16.1791217 L71.5095603,17.8937042 C71.5095603,18.0130275 71.6060861,18.1097582 71.7251348,18.1097582 L74.5702077,18.1097582 C75.8994745,18.1097582 76.0500879,17.5460788 76.0500879,17.1112009 C76.0500879,16.6763229 75.8980927,15.9575278 74.599225,15.9575278 C73.742525,15.9575278 73.1746159,15.9575278 71.7251348,15.9575278 C71.6672312,15.9582578 71.611989,15.9820155 71.5715632,16.0235735 C71.5311375,16.0651314 71.5088404,16.1210846 71.5095603,16.1791217 L71.5095603,16.1791217 Z" id="形状" fill="#FFFFFF"></path>
                <path d="M81.2345044,10.0271222 L84.4360751,15.6749957 L87.6376458,10.0271222 C87.6690247,9.97092276 87.7281519,9.9359996 87.7924045,9.93570374 L89.6039104,9.93570374 C89.7023546,9.93570374 89.7821593,10.0157035 89.7821593,10.1143747 L89.7821593,19.9988459 C89.7821593,20.0975171 89.7023546,20.1775059 89.6039104,20.1775059 L87.8670203,20.1775059 C87.7685762,20.1775059 87.6887715,20.0975171 87.6887715,19.9988459 L87.6887715,14.1667725 L85.0012208,18.9074961 C84.9701585,18.9631545 84.9114715,18.9976001 84.8478438,18.9975186 L84.0187793,18.9975186 C83.9548146,18.9975164 83.8957551,18.9631617 83.8640206,18.9074961 L81.1833788,14.1667725 L81.1833788,19.9974609 C81.1833788,20.0961321 81.1035741,20.176121 81.0051299,20.176121 L79.2682398,20.176121 C79.2210914,20.1761224 79.1758939,20.1572553 79.1426848,20.1237096 C79.1094758,20.0901639 79.0910044,20.0447167 79.0913673,19.9974609 L79.0913673,10.1143747 C79.0910044,10.067119 79.1094758,10.0216717 79.1426848,9.98812607 C79.1758939,9.95458039 79.2210914,9.93570374 79.2682398,9.93570374 L81.0769822,9.93570374 C81.142223,9.934992 81.2026447,9.97005367 81.2345044,10.0271222 L81.2345044,10.0271222 Z" id="路径" fill="#FFFFFF"></path>
                <path d="M96.2557712,9.97726355 C97.4330428,9.97726355 98.9778662,10.6254256 99.8898372,11.4702522 C99.9601993,11.5376661 100,11.6309855 100,11.7285475 C100,11.8261095 99.9601993,11.9194289 99.8898372,11.9868429 L99.0248466,12.8316695 C98.89128,12.9627172 98.6792286,12.9675615 98.5398438,12.8427491 C97.9539716,12.2970743 96.9977839,11.8871256 96.2502441,11.8871256 L96.2378081,11.8871256 C95.1006615,11.8893522 94.0510798,12.4994696 93.4844303,13.4876525 C92.9177808,14.4758354 92.9201511,15.6919553 93.4906483,16.6779117 C94.0611454,17.663868 95.1130974,18.2698705 96.2502441,18.2676438 C96.9977839,18.2676438 97.9553534,17.8521553 98.5398438,17.3120203 C98.6789733,17.1865159 98.8915664,17.1913725 99.0248466,17.3231 L99.8898372,18.1679266 C99.9601993,18.2353406 100,18.32866 100,18.4262219 C100,18.5237839 99.9601993,18.6171033 99.8898372,18.6845173 C98.9778662,19.5293439 97.4330428,20.1775059 96.2557712,20.1775059 C93.4093164,20.1775059 91.1003718,17.8923192 91.1003718,15.0766922 C91.1003718,12.2610653 93.4093164,9.97726355 96.2530076,9.97726355 L96.2557712,9.97726355 Z" id="路径" fill="#FFFFFF"></path>
                <path d="M0.219704537,14.3675919 L0.219704537,9.95233424 C0.219704537,8.55716907 1.34810637,7.42616423 2.74006058,7.42616423 C4.13201478,7.42616423 5.26041662,8.55716907 5.26041662,9.95233424 L5.26041662,14.3925212 C5.26041662,16.8674476 7.23220832,18.9213457 9.7028205,18.946275 C10.9007746,18.9566201 12.0531939,18.4867763 12.9038027,17.6412277 C13.7544115,16.7956791 14.2326892,15.6445268 14.2322761,14.4437648 L14.2322761,9.95233424 C14.2322761,8.55716907 15.360678,7.42616423 16.7526322,7.42616423 C18.1445864,7.42616423 19.2729882,8.55716907 19.2729882,9.95233424 L19.2729882,14.4437648 C19.2729882,19.7204462 15.0060471,23.9984705 9.74151017,24 C4.50458616,24 0.219704537,19.6179814 0.219704537,14.3675919 Z" id="路径" fill="#418CFF"></path>
                <rect id="矩形" fill="#418CFF" x="14.2322761" y="0" width="5.09045595" height="5.10219863" rx="2.54522798"></rect>
                <path d="M2.87961977,0.0179991871 C1.28692156,0.0210626911 -0.00202832941,1.31711665 2.39624465e-06,2.91349053 C0.00203792573,4.50986441 1.29428489,5.8026158 2.8869857,5.80159895 C4.47968651,5.80058091 5.77029128,4.50617955 5.77029128,2.90980437 C5.77029128,2.14189056 5.46556439,1.40550915 4.92329886,0.863031948 C4.38103332,0.320554743 3.64576483,0.0165334019 2.87961977,0.0179991871 L2.87961977,0.0179991871 Z M2.87961977,4.36401408 C2.07833034,4.36401408 1.42875691,3.71294222 1.42875691,2.90980437 C1.42875691,2.10666653 2.07833034,1.45559467 2.87961977,1.45559467 C3.68090919,1.45559467 4.33048262,2.10666653 4.33048262,2.90980437 C4.33048262,3.71294222 3.68090919,4.36401408 2.87961977,4.36401408 L2.87961977,4.36401408 Z" id="形状" fill="#418CFF"></path>
            </g>
        </g>
    </g>
</svg>